<svg width="93" height="76" viewBox="0 0 93 76" fill="none" xmlns="http://www.w3.org/2000/svg">
<path d="M41.6107 7.55628C37.0945 3.04005 30.9687 0.50234 24.5818 0.50234C18.1949 0.502376 12.0701 3.0401 7.55394 7.55628C3.03776 12.0725 0.500051 18.1972 0.5 24.5841C0.5 30.971 3.03771 37.0968 7.55394 41.613L30.2174 64.2753C26.011 58.6669 31.8528 51.3268 35.5529 48.4057C29.9444 48.4057 27.9581 44.9004 29.7107 41.9793C31.4634 39.0583 38.5727 40.2266 43.1477 39.6425C46.8077 39.1751 49.6023 35.5253 50.8908 33.8003C57.6584 24.7402 51.2868 16.5755 46.2502 12.1958L41.6107 7.55628Z" stroke="#8FA0B0" stroke-linecap="round" stroke-linejoin="round"/>
<path d="M77.1353 2.33377C80.0571 3.54443 82.7117 5.31888 84.9476 7.55576C87.1845 9.79159 88.9589 12.4462 90.1696 15.368C91.3802 18.2898 92.0033 21.4215 92.0033 24.5842C92.0033 27.7469 91.3802 30.8786 90.1696 33.8004C88.9589 36.7222 87.1845 39.3769 84.9476 41.6127L80.3074 46.2528L54.5125 72.0477C49.9495 76.6107 42.5515 76.6107 37.9885 72.0477L30.2174 64.2753C26.011 58.6668 31.8528 51.3267 35.5529 48.4056C29.9444 48.4056 27.9582 44.9003 29.7108 41.9793C31.4635 39.0582 38.5728 40.2266 43.1478 39.6424C46.8078 39.175 49.6021 35.5254 50.8906 33.8004C57.6585 24.7402 51.2871 16.5757 46.2505 12.1959L50.8906 7.55576C53.1265 5.31888 55.7811 3.54443 58.7029 2.33377C61.6247 1.12312 64.7564 0.5 67.9191 0.5C71.0818 0.5 74.2135 1.12312 77.1353 2.33377Z" stroke="#8FA0B0" stroke-linecap="round" stroke-linejoin="round"/>
<path d="M20.3633 32.0476V26.2055H14.5212C12.9079 26.2055 11.6001 24.8976 11.6001 23.2844C11.6001 21.6711 12.9079 20.3633 14.5212 20.3633H20.3633V14.5212C20.3633 12.9079 21.6711 11.6001 23.2844 11.6001C24.8977 11.6001 26.2055 12.9079 26.2055 14.5212V20.3633H32.0476C33.6609 20.3633 34.9687 21.6711 34.9687 23.2844C34.9687 24.8976 33.6609 26.2055 32.0476 26.2055H26.2055V32.0476C26.2055 33.6609 24.8977 34.9687 23.2844 34.9687C21.6711 34.9687 20.3633 33.6609 20.3633 32.0476Z" stroke="#8FA0B0" stroke-linecap="round"/>
</svg>
